<svg xmlns="http://www.w3.org/2000/svg" viewBox="0 0 16 16"><defs><style>.cls-1{fill:#27aae1;}</style></defs><g id="Layer_3" data-name="Layer 3"><path class="cls-1" d="M14.9,8.66a3.21,3.21,0,0,0-1.79-1,2.77,2.77,0,0,0,1.22-.75A2.56,2.56,0,0,0,15,5.18a2.64,2.64,0,0,0-.87-2,3.6,3.6,0,0,0-2.52-.81H4.43a1.15,1.15,0,1,0,0,2.3H5a1.06,1.06,0,0,1,1,1.06c0,.58-.25.94-1,1.11a1,1,0,0,0-.79,1,1.09,1.09,0,0,0,.79,1l.57,0a1.14,1.14,0,0,1,0,2.28H4.5a1.23,1.23,0,0,0,0,2.45h6.55a5.25,5.25,0,0,0,2.9-.53A3.06,3.06,0,0,0,15.07,12a3.13,3.13,0,0,0,.41-1.58A2.82,2.82,0,0,0,14.9,8.66Zm-6.36-4h1.55a1.67,1.67,0,0,1,1.11.28.94.94,0,0,1,.32.77,1,1,0,0,1-.32.82,1.79,1.79,0,0,1-1.14.28H8.54Zm3.06,6.27a1.92,1.92,0,0,1-1.27.32H8.54V9h1.78a2,2,0,0,1,1.28.31,1,1,0,0,1,.37.8A1.06,1.06,0,0,1,11.6,10.92Z"/><path class="cls-1" d="M3.13,8.58l-.83.09A.82.82,0,0,1,2.3,7l.83.09a.71.71,0,0,1,.7.72A.72.72,0,0,1,3.13,8.58Z"/><path class="cls-1" d="M2.17,4.09l-.88.21a.74.74,0,1,1,0-1.47L2.17,3a.51.51,0,0,1,.51.52A.52.52,0,0,1,2.17,4.09Z"/><path class="cls-1" d="M2,13.08l-.81.13a.74.74,0,0,1,0-1.47l.81.13a.63.63,0,0,1,.65.6A.63.63,0,0,1,2,13.08Z"/></g></svg>